HIERARCHY
ROOT Hips
{
	OFFSET 0.000000 83.214638 0.000000
	CHANNELS 6 Xposition Yposition Zposition Xrotation Yrotation Zrotation
	JOINT Pelvis
	{
		OFFSET 0.000000 0.000000 0.000000
		CHANNELS 3 Xrotation Yrotation Zrotation
		JOINT LeftUpLeg
		{
			OFFSET 8.479700 -4.795502 -0.379100
			CHANNELS 3 Xrotation Yrotation Zrotation
			JOINT LeftLeg
			{
				OFFSET 0.024144 -32.555107 0.112900
				CHANNELS 3 Xrotation Yrotation Zrotation
				JOINT LeftFoot
				{
					OFFSET -0.024144 -32.638630 -3.012600
					CHANNELS 3 Xrotation Yrotation Zrotation
					JOINT LeftToeBase
					{
						OFFSET 0.970200 -13.225400 11.864200
						CHANNELS 3 Xrotation Yrotation Zrotation
						End Site
						{
							OFFSET 0.000000 12.319262 0.000000
						}
					}
					JOINT LFootTongue
					{
						OFFSET 1.142400 -1.059800 6.665200
						CHANNELS 3 Xrotation Yrotation Zrotation
						End Site
						{
							OFFSET 0.000000 12.319262 0.000000
						}
					}
				}
				JOINT LeftPantLeg
				{
					OFFSET 0.918482 -16.533964 -2.284700
					CHANNELS 3 Xrotation Yrotation Zrotation
					End Site
					{
						OFFSET 0.350399 24.744368 0.000000
					}
				}
			}
		}
		JOINT RightUpLeg
		{
			OFFSET -8.479700 -4.795502 -0.379100
			CHANNELS 3 Xrotation Yrotation Zrotation
			JOINT RightLeg
			{
				OFFSET -0.023144 -32.555092 0.112900
				CHANNELS 3 Xrotation Yrotation Zrotation
				JOINT RightFoot
				{
					OFFSET 0.023144 -32.638641 -3.012700
					CHANNELS 3 Xrotation Yrotation Zrotation
					JOINT RightToeBase
					{
						OFFSET -0.970200 -13.225400 11.864200
						CHANNELS 3 Xrotation Yrotation Zrotation
						End Site
						{
							OFFSET 0.000000 12.319244 0.000000
						}
					}
					JOINT RFootTongue
					{
						OFFSET -1.142200 -1.059800 6.665200
						CHANNELS 3 Xrotation Yrotation Zrotation
						End Site
						{
							OFFSET 0.000000 12.319243 0.000000
						}
					}
				}
				JOINT RightPantLeg
				{
					OFFSET -0.919482 -16.533978 -2.284800
					CHANNELS 3 Xrotation Yrotation Zrotation
					End Site
					{
						OFFSET -0.350400 24.744419 0.000000
					}
				}
			}
		}
	}
	JOINT Spine
	{
		OFFSET 0.000000 7.722000 1.166200
		CHANNELS 3 Xrotation Yrotation Zrotation
		JOINT Spine1
		{
			OFFSET 0.000000 12.024101 0.248800
			CHANNELS 3 Xrotation Yrotation Zrotation
			JOINT Spine2
			{
				OFFSET 0.000000 11.502998 -0.491200
				CHANNELS 3 Xrotation Yrotation Zrotation
				JOINT Neck
				{
					OFFSET 0.000000 18.430702 -3.123100
					CHANNELS 3 Xrotation Yrotation Zrotation
					JOINT Head
					{
						OFFSET 0.000000 9.051102 1.034000
						CHANNELS 3 Xrotation Yrotation Zrotation
						JOINT HairB
						{
							OFFSET 0.208400 24.786102 24.822300
							CHANNELS 3 Xrotation Yrotation Zrotation
							End Site
							{
								OFFSET 0.000000 32.263779 0.000000
							}
						}
						JOINT HairA
						{
							OFFSET -7.081100 24.428299 23.196600
							CHANNELS 3 Xrotation Yrotation Zrotation
							End Site
							{
								OFFSET 0.000000 32.263779 0.000000
							}
						}
						JOINT Hat
						{
							OFFSET 16.728800 15.048294 -15.439601
							CHANNELS 3 Xrotation Yrotation Zrotation
							End Site
							{
								OFFSET 0.000000 32.263779 0.000000
							}
						}
					}
				}
				JOINT LeftShoulder
				{
					OFFSET 6.197800 13.665199 -4.064700
					CHANNELS 3 Xrotation Yrotation Zrotation
					JOINT LeftArm
					{
						OFFSET 7.778100 -0.187103 -1.709300
						CHANNELS 3 Xrotation Yrotation Zrotation
						JOINT LeftForeArm
						{
							OFFSET 22.049376 0.000000 0.000000
							CHANNELS 3 Xrotation Yrotation Zrotation
							JOINT LeftHand
							{
								OFFSET 23.009392 0.000000 0.000000
								CHANNELS 3 Xrotation Yrotation Zrotation
								JOINT LeftHandThumb1
								{
									OFFSET 3.507191 -2.063065 3.133727
									CHANNELS 3 Xrotation Yrotation Zrotation
									JOINT LeftHandThumb2
									{
										OFFSET 3.101337 -1.790558 1.790558
										CHANNELS 3 Xrotation Yrotation Zrotation
										JOINT LeftHandThumb3
										{
											OFFSET 3.058640 -1.765907 1.765906
											CHANNELS 3 Xrotation Yrotation Zrotation
											End Site
											{
												OFFSET -0.415260 3.926476 -0.049563
											}
										}
									}
								}
								JOINT LeftHandIndex1
								{
									OFFSET 11.334419 -0.901459 3.706815
									CHANNELS 3 Xrotation Yrotation Zrotation
									JOINT LeftHandIndex2
									{
										OFFSET 3.283112 0.000000 0.000000
										CHANNELS 3 Xrotation Yrotation Zrotation
										JOINT LeftHandIndex3
										{
											OFFSET 3.323853 0.000000 0.000000
											CHANNELS 3 Xrotation Yrotation Zrotation
											End Site
											{
												OFFSET -1.135597 3.097809 0.402452
											}
										}
									}
								}
								JOINT LeftHandMiddle1
								{
									OFFSET 11.335861 0.000000 0.000000
									CHANNELS 3 Xrotation Yrotation Zrotation
									JOINT LeftHandMiddle2
									{
										OFFSET 3.410492 0.000000 0.000000
										CHANNELS 3 Xrotation Yrotation Zrotation
										JOINT LeftHandMiddle3
										{
											OFFSET 3.312172 0.000000 0.000000
											CHANNELS 3 Xrotation Yrotation Zrotation
											End Site
											{
												OFFSET -1.150200 3.080154 0.400270
											}
										}
									}
								}
								JOINT LeftHandRing1
								{
									OFFSET 11.514786 -0.013176 -3.003090
									CHANNELS 3 Xrotation Yrotation Zrotation
									JOINT LeftHandRing2
									{
										OFFSET 3.053307 0.000000 0.000000
										CHANNELS 3 Xrotation Yrotation Zrotation
										JOINT LeftHandRing3
										{
											OFFSET 3.295807 0.000000 0.000000
											CHANNELS 3 Xrotation Yrotation Zrotation
											End Site
											{
												OFFSET -1.281006 3.013344 0.375733
											}
										}
									}
								}
								JOINT LeftHandPinky1
								{
									OFFSET 10.518692 -0.960396 -5.730441
									CHANNELS 3 Xrotation Yrotation Zrotation
									JOINT LeftHandPinky2
									{
										OFFSET 2.861649 0.000000 0.000000
										CHANNELS 3 Xrotation Yrotation Zrotation
										JOINT LeftHandPinky3
										{
											OFFSET 2.863380 0.000000 0.000000
											CHANNELS 3 Xrotation Yrotation Zrotation
											End Site
											{
												OFFSET -0.843597 2.711159 0.369971
											}
										}
									}
								}
							}
							JOINT LSleeve
							{
								OFFSET 6.676277 -0.344902 -1.011730
								CHANNELS 3 Xrotation Yrotation Zrotation
								End Site
								{
									OFFSET 0.000000 14.885353 0.000000
								}
							}
						}
					}
				}
				JOINT RightShoulder
				{
					OFFSET -6.197800 13.665199 -4.064700
					CHANNELS 3 Xrotation Yrotation Zrotation
					JOINT RightArm
					{
						OFFSET -7.778100 -0.187103 -1.709300
						CHANNELS 3 Xrotation Yrotation Zrotation
						JOINT RightForeArm
						{
							OFFSET -22.049376 0.000000 0.000000
							CHANNELS 3 Xrotation Yrotation Zrotation
							JOINT RightHand
							{
								OFFSET -23.009392 0.000000 0.000000
								CHANNELS 3 Xrotation Yrotation Zrotation
								JOINT RightHandThumb1
								{
									OFFSET -3.507191 -2.063065 3.133727
									CHANNELS 3 Xrotation Yrotation Zrotation
									JOINT RightHandThumb2
									{
										OFFSET -3.101337 -1.790558 1.790558
										CHANNELS 3 Xrotation Yrotation Zrotation
										JOINT RightHandThumb3
										{
											OFFSET -3.058640 -1.765907 1.765906
											CHANNELS 3 Xrotation Yrotation Zrotation
											End Site
											{
												OFFSET 0.415260 3.926476 -0.049563
											}
										}
									}
								}
								JOINT RightHandIndex1
								{
									OFFSET -11.334419 -0.901459 3.706815
									CHANNELS 3 Xrotation Yrotation Zrotation
									JOINT RightHandIndex2
									{
										OFFSET -3.283112 0.000000 0.000000
										CHANNELS 3 Xrotation Yrotation Zrotation
										JOINT RightHandIndex3
										{
											OFFSET -3.323853 0.000000 0.000000
											CHANNELS 3 Xrotation Yrotation Zrotation
											End Site
											{
												OFFSET 1.135597 3.097809 0.402452
											}
										}
									}
								}
								JOINT RightHandMiddle1
								{
									OFFSET -11.335861 0.000000 0.000000
									CHANNELS 3 Xrotation Yrotation Zrotation
									JOINT RightHandMiddle2
									{
										OFFSET -3.410492 0.000000 0.000000
										CHANNELS 3 Xrotation Yrotation Zrotation
										JOINT RightHandMiddle3
										{
											OFFSET -3.312172 0.000000 0.000000
											CHANNELS 3 Xrotation Yrotation Zrotation
											End Site
											{
												OFFSET 1.150200 3.080154 0.400270
											}
										}
									}
								}
								JOINT RightHandRing1
								{
									OFFSET -11.514786 -0.013176 -3.003090
									CHANNELS 3 Xrotation Yrotation Zrotation
									JOINT RightHandRing2
									{
										OFFSET -3.053307 0.000000 0.000000
										CHANNELS 3 Xrotation Yrotation Zrotation
										JOINT RightHandRing3
										{
											OFFSET -3.295807 0.000000 0.000000
											CHANNELS 3 Xrotation Yrotation Zrotation
											End Site
											{
												OFFSET 1.281006 3.013344 0.375733
											}
										}
									}
								}
								JOINT RightHandPinky1
								{
									OFFSET -10.518692 -0.960396 -5.730441
									CHANNELS 3 Xrotation Yrotation Zrotation
									JOINT RightHandPinky2
									{
										OFFSET -2.861649 0.000000 0.000000
										CHANNELS 3 Xrotation Yrotation Zrotation
										JOINT RightHandPinky3
										{
											OFFSET -2.863380 0.000000 0.000000
											CHANNELS 3 Xrotation Yrotation Zrotation
											End Site
											{
												OFFSET 0.843597 2.711159 0.369971
											}
										}
									}
								}
							}
							JOINT RSleeve
							{
								OFFSET -6.676277 -0.344902 -1.011730
								CHANNELS 3 Xrotation Yrotation Zrotation
								End Site
								{
									OFFSET 0.000000 14.885353 0.000000
								}
							}
						}
					}
				}
				JOINT Backpack
				{
					OFFSET 0.000000 -2.471497 36.677502
					CHANNELS 3 Xrotation Yrotation Zrotation
					End Site
					{
						OFFSET 0.000000 20.427315 0.000000
					}
				}
				JOINT Hood
				{
					OFFSET 0.000000 18.754097 -10.431000
					CHANNELS 3 Xrotation Yrotation Zrotation
					JOINT Hood1
					{
						OFFSET 0.000000 -5.011002 -7.685901
						CHANNELS 3 Xrotation Yrotation Zrotation
						End Site
						{
							OFFSET 0.000000 9.175140 0.000000
						}
					}
				}
				JOINT LHoodieString
				{
					OFFSET 5.250500 16.397697 3.089900
					CHANNELS 3 Xrotation Yrotation Zrotation
					JOINT LHoodieString1
					{
						OFFSET 0.257700 -6.364304 3.694600
						CHANNELS 3 Xrotation Yrotation Zrotation
						JOINT LHoodieString2
						{
							OFFSET 0.000000 -9.643799 2.679100
							CHANNELS 3 Xrotation Yrotation Zrotation
							End Site
							{
								OFFSET 0.000000 10.009018 0.000000
							}
						}
					}
				}
				JOINT RHoodieString
				{
					OFFSET -5.250500 16.397697 3.089900
					CHANNELS 3 Xrotation Yrotation Zrotation
					JOINT RHoodieString1
					{
						OFFSET -0.257700 -6.364304 3.694600
						CHANNELS 3 Xrotation Yrotation Zrotation
						JOINT RHoodieString2
						{
							OFFSET 0.000000 -9.643799 2.679100
							CHANNELS 3 Xrotation Yrotation Zrotation
							End Site
							{
								OFFSET 0.000000 10.009018 0.000000
							}
						}
					}
				}
			}
			JOINT LBackpack_Strap
			{
				OFFSET 15.223200 -7.719803 -6.610900
				CHANNELS 3 Xrotation Yrotation Zrotation
				End Site
				{
					OFFSET 0.000000 16.040596 0.000000
				}
			}
			JOINT RBackpack_Strap
			{
				OFFSET -15.223000 -7.719803 -6.610900
				CHANNELS 3 Xrotation Yrotation Zrotation
				End Site
				{
					OFFSET 0.000000 16.040596 0.000000
				}
			}
		}
	}
	JOINT BoyFacialAnim_Joint
	{
		OFFSET 1.000000 -82.208099 -1.550900
		CHANNELS 3 Xrotation Yrotation Zrotation
		End Site
		{
			OFFSET 0.000000 30.012791 0.000000
		}
	}
}
MOTION
Frames: 4
Frame Time: 0.016667
-0.045881 81.141548 0.380264 -0.893277 1.578224 -4.956534 -0.000000 -0.000000 -0.000000 -20.307267 10.464071 16.520751 23.106952 9.350811 2.388282 -1.434200 3.428457 -9.692061 0.000000 -0.000002 0.000000 0.000000 -0.000002 0.000000 0.000001 -0.000003 0.000001 -0.252314 -4.705315 10.926891 9.246740 -5.173044 3.262388 -8.105659 1.009510 -8.568024 0.000000 0.000000 0.000000 0.000000 0.000000 0.000000 -0.000001 -0.000000 -0.000001 1.289588 -1.207122 2.614245 0.728744 0.264195 5.944686 0.710789 0.781493 5.851996 1.045309 -0.304693 -2.163987 1.584931 0.544179 -8.140493 -0.000000 0.000000 -0.000000 -0.000000 0.000000 -0.000000 -0.000000 0.000000 -0.000000 3.582358 -13.764036 -5.044453 4.032790 3.514250 -83.678321 -0.000002 -14.506748 0.000021 -27.592515 3.698836 -9.416208 18.491276 -0.461416 10.916071 1.284089 32.757604 -3.088992 -0.000000 -0.000001 -0.000001 0.339564 4.671354 -7.844272 0.387028 2.823582 -20.566222 0.000001 0.000000 -0.000002 0.912572 8.769272 -15.831754 0.919074 3.991137 -33.400421 0.000000 -0.000000 -0.000002 2.555832 11.673024 -26.909197 1.710646 3.886783 -40.215471 -0.000001 -0.000000 0.000001 5.576093 16.029160 -36.940634 1.378694 4.077656 -45.645639 -0.000001 0.000001 -0.000002 0.000001 0.000001 0.000001 4.508128 3.324373 5.471577 -1.219627 0.655871 67.345426 -0.000003 17.736782 -0.000005 -11.193156 -9.123237 10.139297 18.491276 0.461417 -10.916077 1.284078 -32.757598 3.088971 0.000001 -0.000001 -0.000002 0.339562 -4.671355 7.844270 0.387033 -2.823585 20.566280 -0.000001 -0.000000 0.000004 0.912570 -8.769270 15.831754 0.919076 -3.991135 33.400428 -0.000001 0.000000 -0.000002 2.555832 -11.673019 26.909195 1.710648 -3.886785 40.215467 -0.000001 0.000000 0.000002 5.576093 -16.029156 36.940634 1.378693 -4.077650 45.645635 0.000000 -0.000001 0.000000 0.000000 -0.000000 -0.000000 -0.000000 -0.000000 -0.000001 -0.000000 -0.000000 -0.000001 -0.000000 -0.000000 -0.000001 -0.000000 -0.000000 -0.000001 -0.000000 -0.000000 -0.000001 -0.000000 -0.000000 0.000000 -0.000000 -0.000000 -0.000001 -0.000000 -0.000000 -0.000001 -0.000000 -0.000000 0.000000 -0.000000 0.000000 -0.000000 -0.000000 0.000000 -0.000000 -0.000000 -0.000000 -0.000000 
-0.157778 81.139786 0.367575 -0.842819 1.628861 -5.063587 0.000000 -0.000000 -0.000000 -20.402945 10.353167 16.699203 23.072417 9.440093 2.411654 -1.345527 3.313249 -9.793330 0.000000 0.000000 -0.000000 0.000000 0.000000 -0.000000 0.000001 -0.000002 0.000001 -0.105185 -4.566394 11.153738 8.804648 -5.298002 3.285438 -7.889456 0.974036 -8.698481 0.000000 -0.000000 0.000000 0.000000 -0.000000 0.000000 -0.000000 0.000001 0.000001 1.253440 -1.206336 2.638549 0.804995 0.271352 5.942363 0.791298 0.784184 5.830779 0.939036 -0.325876 -2.038773 0.998201 0.423417 -7.945850 0.000001 -0.000000 -0.000000 0.000001 -0.000000 -0.000000 0.000001 -0.000000 -0.000000 3.578791 -13.707248 -5.015857 3.780840 3.390082 -83.456039 0.000001 -14.511150 -0.000015 -27.318755 4.020867 -9.432645 18.491272 -0.461417 10.916069 1.284087 32.757608 -3.088993 -0.000000 -0.000003 0.000001 0.339562 4.671354 -7.844271 0.387028 2.823581 -20.566222 0.000001 0.000000 -0.000002 0.912572 8.769274 -15.831757 0.919076 3.991137 -33.400421 0.000002 0.000000 0.000002 2.555834 11.673022 -26.909197 1.710648 3.886782 -40.215474 0.000000 0.000003 -0.000000 5.576088 16.029161 -36.940638 1.378695 4.077654 -45.645635 -0.000001 0.000000 -0.000002 -0.000000 0.000000 0.000000 4.481676 3.349433 5.590988 -1.177695 1.237858 67.216226 -0.000003 17.736825 0.000018 -11.184840 -8.945791 10.174456 18.491276 0.461417 -10.916077 1.284075 -32.757598 3.088972 0.000000 -0.000001 0.000001 0.339561 -4.671355 7.844271 0.387034 -2.823586 20.566285 -0.000001 0.000000 0.000002 0.912570 -8.769270 15.831750 0.919076 -3.991137 33.400428 -0.000001 0.000000 -0.000002 2.555832 -11.673021 26.909188 1.710649 -3.886785 40.215467 -0.000002 -0.000000 0.000002 5.576093 -16.029153 36.940638 1.378694 -4.077652 45.645639 -0.000000 -0.000002 0.000002 -0.000000 -0.000001 -0.000000 0.000000 -0.000000 0.000000 0.000000 -0.000000 0.000000 0.000000 -0.000000 0.000000 0.000000 -0.000000 0.000000 0.000000 -0.000000 0.000000 0.000000 -0.000000 0.000000 0.000000 -0.000000 0.000000 0.000000 -0.000000 0.000000 0.000000 -0.000000 0.000000 -0.000000 0.000000 -0.000000 -0.000000 0.000000 -0.000000 0.000000 -0.000000 -0.000000 
-0.268433 81.135345 0.356782 -0.793272 1.682045 -5.173134 0.000000 -0.000000 0.000000 -20.506822 10.238571 16.879079 23.057996 9.518402 2.437833 -1.267839 3.207866 -9.896442 -0.000000 0.000002 -0.000000 -0.000000 0.000002 -0.000000 -0.000000 0.000000 0.000000 0.038573 -4.426553 11.381890 8.374496 -5.424889 3.308152 -7.682113 0.939435 -8.828464 0.000000 0.000000 0.000000 0.000000 0.000000 0.000000 0.000000 -0.000000 0.000001 1.217167 -1.214552 2.661687 0.883787 0.274246 5.935622 0.874438 0.782059 5.804658 0.823466 -0.344953 -1.909927 0.389959 0.303444 -7.738952 0.000000 -0.000000 0.000000 0.000000 -0.000000 0.000000 0.000000 -0.000000 0.000000 3.574454 -13.651339 -4.988282 3.522156 3.255681 -83.224605 0.000003 -14.517246 0.000017 -27.029898 4.361258 -9.454747 18.491276 -0.461417 10.916070 1.284088 32.757604 -3.088991 -0.000000 0.000000 0.000000 0.339561 4.671354 -7.844272 0.387031 2.823582 -20.566219 0.000001 0.000000 -0.000002 0.912572 8.769271 -15.831754 0.919075 3.991137 -33.400424 -0.000000 -0.000002 0.000005 2.555832 11.673020 -26.909197 1.710648 3.886783 -40.215471 0.000001 -0.000000 -0.000001 5.576090 16.029160 -36.940638 1.378697 4.077654 -45.645639 -0.000000 0.000001 -0.000004 0.000000 0.000000 -0.000001 4.449801 3.381857 5.730772 -1.131085 1.840463 67.077082 0.000000 17.687984 0.000003 -11.183878 -8.708326 10.219241 18.491274 0.461416 -10.916076 1.284079 -32.757598 3.088972 0.000001 0.000001 0.000001 0.339562 -4.671356 7.844270 0.387033 -2.823586 20.566284 -0.000000 -0.000000 0.000002 0.912571 -8.769270 15.831752 0.919075 -3.991135 33.400424 0.000001 0.000001 -0.000004 2.555832 -11.673020 26.909192 1.710649 -3.886783 40.215467 -0.000000 0.000001 -0.000001 5.576093 -16.029156 36.940634 1.378694 -4.077651 45.645635 0.000001 -0.000000 0.000000 -0.000000 0.000002 -0.000000 0.000000 -0.000000 -0.000001 0.000000 -0.000000 -0.000001 0.000000 -0.000000 -0.000001 0.000000 -0.000000 -0.000001 0.000000 -0.000000 -0.000001 0.000000 0.000000 -0.000001 0.000000 -0.000000 -0.000001 0.000000 -0.000000 -0.000001 0.000000 0.000000 -0.000001 -0.000000 0.000000 0.000000 -0.000000 0.000000 0.000000 0.000000 -0.000000 0.000000 
-0.374824 81.123848 0.351186 -0.745956 1.742204 -5.287931 0.000000 0.000000 -0.000000 -20.633848 10.114312 17.061251 23.100586 9.567576 2.471133 -1.221819 3.128776 -10.004650 -0.000000 -0.000000 0.000000 -0.000000 -0.000000 0.000000 0.000000 0.000000 -0.000000 0.149914 -4.288853 11.608774 8.023347 -5.556610 3.329827 -7.519670 0.907599 -8.949894 0.000000 0.000001 0.000000 0.000000 0.000001 0.000000 -0.000000 0.000001 0.000001 1.181013 -1.231272 2.683433 0.965308 0.273020 5.924297 0.960402 0.775222 5.773463 0.698737 -0.362127 -1.777487 -0.238803 0.182365 -7.518667 0.000000 0.000000 -0.000000 0.000000 0.000000 -0.000000 0.000000 0.000000 -0.000000 3.569244 -13.596742 -4.962269 3.256770 3.110459 -82.983117 0.000004 -14.524935 0.000006 -26.724497 4.721295 -9.483394 18.491274 -0.461417 10.916069 1.284087 32.757611 -3.088991 0.000000 -0.000003 -0.000001 0.339560 4.671353 -7.844270 0.387031 2.823581 -20.566219 0.000001 -0.000001 -0.000000 0.912572 8.769272 -15.831752 0.919076 3.991137 -33.400417 0.000000 -0.000001 -0.000000 2.555833 11.673022 -26.909197 1.710648 3.886782 -40.215474 -0.000001 0.000002 -0.000005 5.576090 16.029160 -36.940638 1.378693 4.077656 -45.645639 0.000000 0.000000 -0.000002 0.000000 0.000001 0.000001 4.412046 3.421892 5.891968 -1.079196 2.463872 66.927152 0.000001 17.587206 -0.000007 -11.191066 -8.406581 10.273796 18.491276 0.461416 -10.916076 1.284078 -32.757598 3.088970 -0.000000 -0.000002 -0.000001 0.339562 -4.671356 7.844271 0.387034 -2.823586 20.566287 -0.000001 -0.000000 0.000004 0.912570 -8.769271 15.831752 0.919075 -3.991137 33.400428 -0.000001 -0.000001 0.000003 2.555831 -11.673020 26.909188 1.710648 -3.886786 40.215464 -0.000000 -0.000001 0.000000 5.576093 -16.029158 36.940638 1.378692 -4.077652 45.645632 0.000000 -0.000003 0.000002 0.000001 0.000001 -0.000001 0.000000 0.000000 0.000000 0.000000 0.000000 0.000000 0.000000 0.000000 0.000000 0.000000 0.000000 0.000000 0.000000 0.000000 -0.000001 0.000000 0.000000 0.000000 0.000000 0.000000 0.000000 0.000000 0.000000 -0.000001 0.000000 0.000000 0.000000 0.000000 0.000000 -0.000000 0.000000 0.000000 -0.000000 0.000000 0.000000 -0.000000 
